<svg width="64" height="64" viewBox="0 0 64 64" fill="none" xmlns="http://www.w3.org/2000/svg">
  <rect width="64" height="64" rx="10" fill="#E3F2FD"/>
  <path d="M16 18H40C42.2091 18 44 19.7909 44 22V48H16C13.7909 48 12 46.2091 12 44V22C12 19.7909 13.7909 18 16 18Z" fill="#64B5F6"/>
  <path d="M44 22L52 26V52H44V22Z" fill="#1976D2"/>
  <path d="M20 22H36V26H20V22ZM20 30H36V34H20V30ZM20 38H36V42H20V38Z" fill="white"/>
  <circle cx="48" cy="16" r="6" fill="#FFC107"/>
  <path d="M48 10V13M48 19V22M42 16H45M51 16H54M45.76 12.24L47.88 14.36M45.76 19.76L47.88 17.64M50.12 14.36L52.24 12.24M50.12 17.64L52.24 19.76" stroke="#FF6F00" stroke-width="1.5"/>
</svg>
