<svg width="64" height="64" viewBox="0 0 64 64" fill="none" xmlns="http://www.w3.org/2000/svg">
  <!-- Background -->
  <rect width="64" height="64" rx="10" fill="#FFF3E0"/>

  <!-- Gear (process/automation) -->
  <circle cx="32" cy="32" r="10" fill="#FFB300"/>
  <path d="M32 22V18M32 46V42M42 32H46M18 32H22M39.8 24.2L42.6 21.4M24.2 39.8L21.4 42.6M24.2 24.2L21.4 21.4M39.8 39.8L42.6 42.6" stroke="#FB8C00" stroke-width="2" stroke-linecap="round"/>

  <!-- Brain (learning/intelligence) -->
  <path d="M28 28C28 27 29 26 30 26C31 26 32 27 32 28C32 27 33 26 34 26C35 26 36 27 36 28C37 28 38 29 38 30C38 31 37 32 36 32H28C27 32 26 31 26 30C26 29 27 28 28 28Z" fill="#FF7043"/>

  <!-- Dots (symbolizing nodes/neurons) -->
  <circle cx="30" cy="28" r="1.2" fill="white"/>
  <circle cx="34" cy="28" r="1.2" fill="white"/>
  <circle cx="32" cy="30" r="1.2" fill="white"/>
</svg>
